<?xml version="1.0" standalone="no"?><!DOCTYPE svg PUBLIC "-//W3C//DTD SVG 1.1//EN" "http://www.w3.org/Graphics/SVG/1.1/DTD/svg11.dtd"><svg t="1710400296303" class="icon" viewBox="0 0 1024 1024" version="1.1" xmlns="http://www.w3.org/2000/svg" p-id="25577" xmlns:xlink="http://www.w3.org/1999/xlink" width="200" height="200"><path d="M517.113608 56.249688c-5.113608-5.113608-10.227216-5.113608-20.454432 0L118.252185 276.134831c-10.227216 5.113608-10.227216 10.227216-10.227216 15.340824v439.770288c0 5.113608 5.113608 10.227216 10.227216 15.340824l383.520599 219.885143c5.113608 5.113608 10.227216 5.113608 20.454432 0l383.520599-219.885143c5.113608-5.113608 10.227216-10.227216 10.227216-15.340824V291.475655c0-5.113608-5.113608-10.227216-10.227216-15.340824l-388.634207-219.885143z m30.681648-46.022472l383.520599 219.885144c20.454432 15.340824 35.795256 35.795256 35.795256 61.363295v439.770288c0 25.56804-15.340824 51.13608-35.795256 61.363295l-383.520599 219.885144c-20.454432 15.340824-51.13608 15.340824-71.590512 0l-383.520599-219.885144c-25.56804-10.227216-40.908864-35.795256-40.908864-61.363295V291.475655c0-25.56804 15.340824-51.13608 35.795256-61.363295L471.091136 10.227216c25.56804-15.340824 51.13608-15.340824 76.70412 0z m-5.113608 511.360799L767.6804 388.634207c15.340824-10.227216 20.454432-30.681648 10.227215-46.022472-5.113608-5.113608-10.227216-15.340824-20.454431-15.340824s-15.340824 0-25.56804 5.113608L512 465.338327 281.88764 332.384519c-5.113608-5.113608-15.340824-5.113608-25.56804-5.113608s-15.340824 10.227216-20.454431 15.340824c-5.113608 15.340824 0 35.795256 15.340824 46.022472l224.998751 132.953808v250.566791c0 10.227216 5.113608 15.340824 10.227216 25.56804 5.113608 5.113608 15.340824 10.227216 25.56804 10.227216 20.454432 0 30.681648-15.340824 30.681648-30.681648v-255.680399z" fill="#1296db" p-id="25578"></path></svg>