<?xml version="1.0" standalone="no"?><!DOCTYPE svg PUBLIC "-//W3C//DTD SVG 1.1//EN" "http://www.w3.org/Graphics/SVG/1.1/DTD/svg11.dtd"><svg t="1710399358685" class="icon" viewBox="0 0 1024 1024" version="1.1" xmlns="http://www.w3.org/2000/svg" p-id="17368" xmlns:xlink="http://www.w3.org/1999/xlink" width="200" height="200"><path d="M512.000512 966.31316c-16.043395 0-31.242562-3.673669-42.796712-10.344602L148.91203 771.049964c-23.998577-13.855566-42.797735-46.416146-42.797735-74.127278L106.114295 327.081407c0-27.711132 18.799158-60.271712 42.797735-74.127278L469.202777 68.031443c11.555174-6.670933 26.754341-10.344602 42.797735-10.344602s31.242562 3.674693 42.797735 10.345626l320.2887 184.921663c23.998577 13.855566 42.797735 46.416146 42.797735 74.127278l0 369.840256c0 27.712155-18.799158 60.272735-42.797735 74.127278L554.79927 955.968557C543.244097 962.63949 528.04493 966.31316 512.000512 966.31316zM512.000512 78.151941c-12.326746 0-24.196075 2.771113-32.564673 7.603165L159.145092 270.677792c-17.652032 10.19213-32.564673 36.021401-32.564673 56.403614l0 369.840256c0 20.382213 14.912641 46.211485 32.564673 56.403614l320.29177 184.918593c8.368598 4.832052 20.237927 7.603165 32.56365 7.603165 12.326746 0 24.197098-2.771113 32.565696-7.603165l320.287677-184.918593c17.652032-10.191106 32.564673-36.020378 32.564673-56.403614L897.418558 327.081407c0-20.382213-14.912641-46.212508-32.564673-56.403614L544.565185 85.756129C536.195563 80.923054 524.327258 78.151941 512.000512 78.151941z" fill="#1296db" p-id="17369"></path><path d="M741.101373 418.110633 458.74561 700.477652l-8.442276-8.442276 8.442276 8.442276L265.438976 753.447051l0 0 7.810896-24.183795 48.345078-161.395854 10.673084 6.128581-10.673084-6.128581 284.587594-284.668435c23.288402-23.291472 61.033052-23.291472 84.320431 0l50.586119 50.586119C764.381589 357.075535 764.381589 394.819161 741.101373 418.110633L741.101373 418.110633 741.101373 418.110633zM300.381813 721.668277l143.732565-40.271192 14.872732-14.896268-101.187587-101.186564-15.026228 15.003715L300.381813 721.668277 300.381813 721.668277 300.381813 721.668277zM374.66054 548.452213l101.198843 101.199866 197.781552-197.805088-101.18554-101.186564L374.66054 548.452213 374.66054 548.452213 374.66054 548.452213zM719.289602 345.711719l-40.71019-40.711214c-23.290449-23.291472-37.184901-23.291472-60.461023 0l-28.79072 28.810163 101.187587 101.174284 28.786627-28.797883C742.582097 382.894573 742.582097 369.003192 719.289602 345.711719L719.289602 345.711719 719.289602 345.711719zM442.40955 307.872926c-23.291472-23.288402-37.195134-23.288402-60.482513 0l-96.250134 96.237855-16.865109-16.86204 101.186564-101.186564c23.293519-23.291472 61.036122-23.291472 84.325547 0l55.735395 55.738465-16.861016 16.86204L442.40955 307.872926 442.40955 307.872926 442.40955 307.872926zM327.833025 412.553057l33.736359-33.735335 16.871249 16.86204-33.734312 33.735335-2.004657-2.004657 18.85544 18.877953 50.585095-50.608631 16.874319 16.873296-50.586119 50.587142 5.151323 5.151323-16.873296 16.86204-81.044828-81.042781 16.875343-16.86204L327.833025 412.553057 327.833025 412.553057 327.833025 412.553057zM563.952744 648.661519l50.586119 50.587142 25.305339 25.306362 79.373769-79.398328c23.290449-23.292496 23.290449-37.195134 0-60.486606l-53.232388-53.233412 16.861016-16.86204 58.182121 58.182121c23.292496 23.289426 23.292496 61.033052 0 84.324524l-84.320431 84.320431-16.864086 16.865109-16.863063-16.865109L539.493679 657.917324l16.863063-16.863063L563.952744 648.661519 563.952744 648.661519 563.952744 648.661519zM631.411135 614.93744l-50.586119 50.587142-16.872273-16.863063 50.586119-50.611701L631.411135 614.93744 631.411135 614.93744 631.411135 614.93744zM639.845225 640.219243l16.863063 16.874319-42.155099 42.154076L597.690126 682.374342 639.845225 640.219243 639.845225 640.219243 639.845225 640.219243zM639.845225 640.219243" fill="#1296db" p-id="17370"></path></svg>